<?xml version="1.0" standalone="no"?>
<!DOCTYPE svg PUBLIC "-//W3C//DTD SVG 20010904//EN"
 "http://www.w3.org/TR/2001/REC-SVG-20010904/DTD/svg10.dtd">
<svg version="1.0" xmlns="http://www.w3.org/2000/svg"
 width="256.000000pt" height="256.000000pt" viewBox="0 0 256.000000 256.000000"
 preserveAspectRatio="xMidYMid meet">
<metadata>
Created by potrace 1.14, written by Peter Selinger 2001-2017
</metadata>
<g transform="translate(0.000000,256.000000) scale(0.100000,-0.100000)"
fill="#000000" stroke="none">
<path d="M1075 2543 c-128 -24 -185 -40 -280 -78 -286 -115 -536 -350 -669
-629 -44 -91 -79 -191 -95 -268 -6 -29 -14 -64 -18 -78 -3 -14 -7 -97 -9 -185
-3 -178 10 -275 53 -408 15 -45 27 -84 28 -87 2 -16 89 -186 96 -188 5 -2 9
-10 9 -18 0 -8 5 -14 10 -14 6 0 10 -5 10 -12 0 -33 155 -207 256 -287 117
-94 137 -106 264 -167 117 -56 204 -85 330 -109 61 -12 353 -15 405 -4 28 5
61 12 75 14 14 3 38 7 55 11 16 3 35 10 42 16 7 6 13 8 13 4 0 -13 211 76 275
116 30 19 148 101 163 113 99 80 272 281 272 315 0 5 4 10 8 10 6 0 85 144 87
160 0 3 7 16 15 30 7 14 12 26 11 28 -1 1 10 39 24 85 39 128 54 245 50 402
-2 77 -6 154 -9 170 -19 88 -50 202 -59 213 -5 6 -6 12 -2 12 4 0 0 11 -9 25
-9 14 -14 25 -12 25 11 0 -91 190 -137 254 -77 108 -172 207 -272 282 -27 21
-52 40 -55 43 -18 20 -199 112 -265 136 -27 9 -59 21 -70 25 -11 5 -33 12 -50
16 -16 4 -34 8 -40 10 -122 31 -378 40 -500 17z"/>
</g>
</svg>
